<?xml version="1.0" encoding="UTF-8"?>
<svg xmlns="http://www.w3.org/2000/svg" version="1.1" xmlns:xlink="http://www.w3.org/1999/xlink" viewBox="0 0 612 792">
  <defs>
    <style>
      .cls-1 {
        font-family: MongolianBaiti, 'Mongolian Baiti';
        font-size: 16px;
      }

      .cls-1, .cls-2 {
        fill: #231f20;
      }

      .cls-3, .cls-4, .cls-5, .cls-6 {
        fill: none;
      }

      .cls-2, .cls-7, .cls-4, .cls-5, .cls-8, .cls-6 {
        stroke: #231f20;
      }

      .cls-2, .cls-7, .cls-5, .cls-8, .cls-6 {
        stroke-miterlimit: 10;
      }

      .cls-9 {
        letter-spacing: 1.25em;
      }

      .cls-7, .cls-8 {
        fill: url(#Circles);
      }

      .cls-4 {
        stroke-width: .3px;
      }

      .cls-8 {
        stroke-dasharray: 4;
      }

      .cls-6 {
        stroke-dasharray: 8;
      }
    </style>
    <pattern id="Circles" x="0" y="0" width="46.77" height="54" patternUnits="userSpaceOnUse" viewBox="0 0 46.77 54">
      <g>
        <rect class="cls-3" x="0" width="46.77" height="54"/>
        <g>
          <path class="cls-4" d="M41.06,21.58c.41-.72.17-1.63-.55-2.05-.72-.41-1.63-.17-2.05.55-.41.72-.17,1.63.55,2.05.72.41,1.63.17,2.05-.55Z"/>
          <path class="cls-4" d="M39.81,29.92c-.41-.72-1.33-.96-2.05-.55-.72.41-.96,1.33-.55,2.05.41.72,1.33.96,2.05.55.72-.41.96-1.33.55-2.05Z"/>
          <path class="cls-4" d="M31.56,16.83c-.41-.72-1.33-.96-2.05-.55-.72.41-.96,1.33-.55,2.05.41.72,1.33.96,2.05.55.72-.41.96-1.33.55-2.05Z"/>
          <path class="cls-4" d="M24.02,23.62c.41-.72.17-1.64-.55-2.05-.72-.41-1.64-.17-2.05.55-.41.72-.17,1.63.55,2.05.72.41,1.63.17,2.05-.55Z"/>
          <path class="cls-4" d="M26.81,29.83c-.41-.72-1.33-.96-2.05-.55-.72.41-.96,1.33-.55,2.05.41.72,1.33.96,2.05.55.72-.41.96-1.33.55-2.05Z"/>
          <circle class="cls-4" cx="32.43" cy="36" r="1.5"/>
          <path class="cls-4" d="M6.52,23.67c-.41-.72-.17-1.64.55-2.05.72-.41,1.63-.17,2.05.55.41.72.17,1.63-.55,2.05-.72.41-1.63.17-2.05-.55Z"/>
          <path class="cls-4" d="M7.15,31.25c.41-.72,1.33-.96,2.05-.55.72.42.96,1.33.55,2.05-.41.72-1.33.96-2.05.55-.72-.41-.96-1.33-.55-2.05Z"/>
          <path class="cls-4" d="M12.42,16.42c.41-.72,1.33-.96,2.05-.55.72.41.96,1.33.55,2.05-.41.72-1.33.96-2.05.55-.72-.41-.96-1.33-.55-2.05Z"/>
          <circle class="cls-4" cx="18" cy="35" r="1.5"/>
          <path class="cls-4" d="M41.02,50c-.41.72-1.33.96-2.05.55-.72-.41-.96-1.33-.55-2.05.41-.72,1.33-.96,2.05-.55.72.41.96,1.33.55,2.05Z"/>
          <path class="cls-4" d="M25.31,50.08c-.41.72-1.33.96-2.05.55-.72-.42-.96-1.33-.55-2.05.41-.72,1.33-.96,2.05-.55.72.41.96,1.33.55,2.05Z"/>
          <circle class="cls-4" cx="31.18" cy="45" r="1.5"/>
          <path class="cls-4" d="M5.77,50.38c.41.72,1.33.96,2.05.55.72-.41.96-1.33.55-2.05-.41-.72-1.33-.96-2.05-.55-.72.41-.96,1.33-.55,2.05Z"/>
          <circle class="cls-4" cx="15.84" cy="43" r="1.5"/>
          <path class="cls-4" d="M40.27,3.75c.41.72.17,1.63-.55,2.05-.72.42-1.63.17-2.05-.55-.41-.72-.17-1.64.55-2.05.72-.41,1.63-.17,2.05.55Z"/>
          <path class="cls-4" d="M32.48,9.75c-.41.72-1.33.96-2.05.55-.72-.41-.96-1.33-.55-2.05.41-.72,1.33-.96,2.05-.55.72.41.96,1.33.55,2.05Z"/>
          <path class="cls-4" d="M25.36,3.12c.41.72.17,1.63-.55,2.05-.72.41-1.63.17-2.05-.55-.41-.72-.17-1.64.55-2.05.72-.41,1.63-.17,2.05.55Z"/>
          <path class="cls-4" d="M6.49,3.75c-.41.72-.17,1.63.55,2.05.72.42,1.63.17,2.05-.55.41-.72.17-1.64-.55-2.05-.72-.41-1.64-.17-2.05.55Z"/>
          <path class="cls-4" d="M14.79,8.75c.41.72,1.33.96,2.05.55.72-.41.96-1.33.55-2.05-.41-.72-1.33-.96-2.05-.55-.72.41-.96,1.33-.55,2.05Z"/>
          <circle class="cls-4" cx="47.52" cy="17.5" r="1.5"/>
          <circle class="cls-4" cx="47.5" cy="45" r="1.5"/>
          <path class="cls-4" d="M25.81,39.33c-.41-.72-1.33-.96-2.05-.55-.72.41-.96,1.33-.55,2.05.41.72,1.33.96,2.05.55.72-.41.96-1.33.55-2.05Z"/>
          <path class="cls-4" d="M17.31,26.33c-.41-.72-1.33-.96-2.05-.55-.72.41-.96,1.33-.55,2.05.41.72,1.33.96,2.05.55.72-.41.96-1.33.55-2.05Z"/>
          <path class="cls-4" d="M33.55,24.45c-.41-.72-1.33-.96-2.05-.55-.72.41-.96,1.33-.55,2.05.41.72,1.33.96,2.05.55.72-.41.96-1.33.55-2.05Z"/>
          <path class="cls-4" d="M24.56,12.83c-.41-.72-1.33-.96-2.05-.55-.72.41-.96,1.33-.55,2.05.41.72,1.33.96,2.05.55.72-.41.96-1.33.55-2.05Z"/>
          <path class="cls-4" d="M8.06,12.33c-.41-.72-1.33-.96-2.05-.55-.72.41-.96,1.33-.55,2.05.41.72,1.33.96,2.05.55.72-.41.96-1.33.55-2.05Z"/>
          <path class="cls-4" d="M40.12,12.25c-.41-.72-1.33-.96-2.05-.55-.72.41-.96,1.33-.55,2.05.42.72,1.33.96,2.05.55.72-.41.96-1.33.55-2.05Z"/>
          <path class="cls-4" d="M8.31,39.33c-.41-.72-1.33-.96-2.05-.55-.72.41-.96,1.33-.55,2.05.41.72,1.33.96,2.05.55.72-.41.96-1.33.55-2.05Z"/>
          <path class="cls-4" d="M16.81,52.08c-.41-.72-1.33-.96-2.05-.55-.72.41-.96,1.33-.55,2.05.41.72,1.33.96,2.05.55.72-.42.96-1.33.55-2.05Z"/>
          <path class="cls-4" d="M34.56,52.58c-.41-.72-1.33-.96-2.05-.55-.72.41-.96,1.33-.55,2.05.41.72,1.33.96,2.05.55.72-.42.96-1.33.55-2.05Z"/>
          <circle class="cls-4" cx="39.5" cy="41.25" r="1.5"/>
          <circle class="cls-4" cx="46.77" cy="54.75" r="1.5"/>
          <path class="cls-4" d="M47.8,26.2c-.42-.72-1.33-.96-2.05-.55-.72.41-.96,1.33-.55,2.05.41.72,1.33.96,2.05.55.72-.41.96-1.33.55-2.05Z"/>
          <circle class="cls-4" cx="47.48" cy="8" r="1.5"/>
          <circle class="cls-4" cx="45.48" cy="36.25" r="1.5"/>
        </g>
        <g>
          <circle class="cls-4" cx=".75" cy="17.5" r="1.5"/>
          <circle class="cls-4" cx=".73" cy="45" r="1.5"/>
          <circle class="cls-4" cy="54.75" r="1.5"/>
          <path class="cls-4" d="M1.03,26.2c-.42-.72-1.33-.96-2.05-.55-.72.41-.96,1.33-.55,2.05.41.72,1.33.96,2.05.55.72-.41.96-1.33.55-2.05Z"/>
          <circle class="cls-4" cx=".72" cy="8" r="1.5"/>
          <circle class="cls-4" cx="-1.28" cy="36.25" r="1.5"/>
        </g>
        <g>
          <path class="cls-4" d="M16.81-1.93c-.41-.72-1.33-.96-2.05-.55-.72.41-.96,1.33-.55,2.05.41.72,1.33.96,2.05.55.72-.41.96-1.33.55-2.05Z"/>
          <path class="cls-4" d="M34.56-1.43c-.41-.72-1.33-.96-2.05-.55-.72.41-.96,1.33-.55,2.05.41.72,1.33.96,2.05.55.72-.41.96-1.33.55-2.05Z"/>
          <circle class="cls-4" cx="46.77" cy=".75" r="1.5"/>
        </g>
        <circle class="cls-4" cy=".75" r="1.5"/>
      </g>
    </pattern>
  </defs>
  <!-- Generator: Adobe Illustrator 28.7.3, SVG Export Plug-In . SVG Version: 1.2.0 Build 164)  -->
  <g>
    <g id="Layer_1">
      <rect class="cls-7" x="103.18" y="117.93" width="125.28" height="125.28"/>
      <path class="cls-7" d="M527.05,228.16c.18.02.35.05.53.07l.27-.27-105.64-105.64-105.64,105.64"/>
      <line class="cls-6" x1="107.3" y1="122.05" x2="228.46" y2="243.21"/>
      <line class="cls-6" x1="407.75" y1="227.96" x2="466.4" y2="169.31"/>
      <line class="cls-6" x1="376.24" y1="169.31" x2="459.2" y2="169.31"/>
      <polygon class="cls-2" points="136.46 206.71 137 184.96 150.82 190.37 136.46 206.71"/>
      <path class="cls-5" d="M201.42,163.82c-22.81-8.93-48.25,1.67-56.87,23.7"/>
      <polygon class="cls-2" points="400.83 191.3 398.7 217.16 382.62 209.78 400.83 191.3"/>
      <path class="cls-5" d="M320.58,237.95c26.55,12.18,57.56,1.29,69.32-24.36"/>
      <line class="cls-5" x1="527.85" y1="227.96" x2="316.56" y2="227.96"/>
      <path class="cls-5" d="M292.19,412.92"/>
      <path class="cls-7" d="M215.06,377.64l-73.98,70.26v.32s-37.59-70-37.59-70l-.31-.31,56.08-56.08,126.06,126.06-.32.32c-.21-.03-.41-.07-.63-.09l.95-.24h-144.24"/>
      <line class="cls-5" x1="103.18" y1="377.92" x2="215.06" y2="377.64"/>
      <polygon class="cls-7" points="500.95 371.18 369.97 371.5 435.62 305.85 500.95 371.18"/>
      <polygon class="cls-2" points="140.48 405.38 160.98 391 165.43 407.49 140.48 405.38"/>
      <path class="cls-5" d="M224.62,436.13c-7.35-27.22-34.57-43.49-60.85-36.39"/>
      <polygon class="cls-2" points="442.73 393.42 426.78 384.03 436.5 375.99 442.73 393.42"/>
      <path class="cls-5" d="M437.65,327.41c-16.05,13.28-18.67,36.56-5.85,52.07"/>
      <polygon class="cls-7" points="457.64 453.43 414.33 453.43 500.95 371.18 457.64 453.81 369.97 371.5 370.32 371.86 414.33 453.81 457.64 453.43"/>
      <polyline class="cls-8" points="489.41 370.96 435.46 422.2 435.46 421.69 380.54 371.48"/>
      <path class="cls-5" d="M410.82,414.28"/>
      <polygon class="cls-7" points="238.87 574.68 103.18 575.02 171.19 507 238.87 574.68"/>
      <polygon class="cls-7" points="194.01 659.89 149.14 659.89 238.87 574.68 194.01 660.28 103.18 575.02 103.55 575.39 149.14 660.28 194.01 659.89"/>
      <polyline class="cls-8" points="227.42 575.02 171.52 628.1 171.52 627.56 114.63 575.55"/>
      <path class="cls-5" d="M472.05,617.16"/>
      <line class="cls-5" x1="457.8" y1="661.55" x2="412.16" y2="661.55"/>
      <path class="cls-5" d="M365.4,575.21c45.1-.71,90.2-.71,135.3-.36"/>
      <path class="cls-7" d="M502.95,575.79c-.08-.08-.17-.15-.25-.23l-68.06,64.64,23.16,21.74,45.15-86.15Z"/>
      <polygon class="cls-7" points="365.78 575.59 412.16 661.94 412.16 661.55 434.64 640.2 365.4 575.21 365.78 575.59"/>
      <line class="cls-5" x1="376.55" y1="575.18" x2="434.42" y2="628.09"/>
      <line class="cls-5" x1="491.28" y1="574.64" x2="434.42" y2="628.64"/>
      <polygon class="cls-2" points="168.87 601.78 186.9 591.77 176.29 582.54 168.87 601.78"/>
      <path class="cls-5" d="M176.36,528.4c17.52,15.23,19.79,41.25,5.08,58.16"/>
      <line class="cls-5" x1="500.7" y1="574.84" x2="503.87" y2="574.91"/>
      <text class="cls-1" transform="translate(376.56 759.75)"><tspan x="0" y="0">Elise Hansen</tspan><tspan class="cls-9" x="83.98" y="0">	</tspan><tspan x="108" y="0">Origami Cup</tspan></text>
    </g>
  </g>
</svg>