<?xml version="1.0" encoding="UTF-8"?>
<svg xmlns="http://www.w3.org/2000/svg" version="1.1" viewBox="0 0 612 792">
  <defs>
    <style>
      .cls-1, .cls-2, .cls-3, .cls-4, .cls-5, .cls-6, .cls-7, .cls-8, .cls-9, .cls-10, .cls-11, .cls-12, .cls-13, .cls-14, .cls-15, .cls-16, .cls-17, .cls-18, .cls-19, .cls-20 {
        stroke-miterlimit: 10;
      }

      .cls-1, .cls-2, .cls-3, .cls-5, .cls-6, .cls-7, .cls-8, .cls-10, .cls-11, .cls-12, .cls-16, .cls-19 {
        stroke: #231f20;
      }

      .cls-1, .cls-3, .cls-5, .cls-8, .cls-9, .cls-12, .cls-15, .cls-16, .cls-17, .cls-18, .cls-19 {
        fill: none;
      }

      .cls-1, .cls-11, .cls-13, .cls-17 {
        stroke-width: 2px;
      }

      .cls-2, .cls-3, .cls-15, .cls-18 {
        stroke-width: 10px;
      }

      .cls-2, .cls-4, .cls-21, .cls-6, .cls-20 {
        fill: #fff;
      }

      .cls-22, .cls-7, .cls-10, .cls-11 {
        fill: #231f20;
      }

      .cls-4, .cls-9 {
        stroke: #fff;
      }

      .cls-5, .cls-12 {
        stroke-width: 3px;
      }

      .cls-7, .cls-8 {
        stroke-width: 5px;
      }

      .cls-12, .cls-19 {
        stroke-dasharray: 8;
      }

      .cls-13 {
        fill: #2e3192;
      }

      .cls-13, .cls-17, .cls-18, .cls-20 {
        stroke: #2e3192;
      }

      .cls-14 {
        fill: #ed1c24;
      }

      .cls-14, .cls-15 {
        stroke: #ed1c24;
      }

      .cls-20 {
        stroke-width: 6px;
      }
    </style>
  </defs>
  <!-- Generator: Adobe Illustrator 28.7.3, SVG Export Plug-In . SVG Version: 1.2.0 Build 164)  -->
  <g>
    <g id="Layer_1">
      <path class="cls-1" d="M459.06,436.84c4.49,1.35,9.06-1.54,10.77-5.69"/>
      <path class="cls-1" d="M469.66,431.57c1.82-4.38-.59-9.54-5.38-11.52"/>
      <path class="cls-2" d="M453.76,317.56h-44.09c-6.38,0-12.27-3.4-15.45-8.92l-22.04-38.18c-3.19-5.52-3.19-12.32,0-17.84l22.04-38.18c3.19-5.52,9.08-8.92,15.45-8.92h44.09c6.38,0,12.27,3.4,15.45,8.92l22.04,38.18c3.19,5.52,3.19,12.32,0,17.84l-22.04,38.18c-3.19,5.52-9.08,8.92-15.45,8.92Z"/>
      <circle class="cls-10" cx="431.71" cy="251.78" r="9.75"/>
      <line class="cls-5" x1="432.1" y1="259.05" x2="432.1" y2="314.69"/>
      <path class="cls-22" d="M431.96,273.4c7.22-1.47,9.57-13.18,10.59-19.52,1.17-8.23,1-16.67.03-24.96l4.96-.5c1.23,12.06.25,45.62-15.28,47.96,0,0-.3-2.99-.3-2.99h0Z"/>
      <path class="cls-5" d="M428.02,297.34c-5.5-6.41-3.47-17.16,4.55-24.04"/>
      <path class="cls-22" d="M431.63,215.48c-3.03,0-5.56,2.11-6.2,4.94h1.85c.6-1.83,2.32-3.16,4.35-3.16,2.53,0,4.58,2.05,4.58,4.58,0,2.17-1.51,3.99-3.54,4.46h-1.68v6.87h1.68v-5.05c3.02-.5,5.33-3.12,5.33-6.28,0-3.51-2.85-6.36-6.36-6.36Z"/>
      <circle class="cls-22" cx="431.71" cy="235.73" r="1.21"/>
      <circle class="cls-3" cx="195.7" cy="693.78" r="55.78"/>
      <ellipse class="cls-16" cx="167.7" cy="675.25" rx="13.64" ry="7.32"/>
      <ellipse class="cls-16" cx="212.14" cy="675.25" rx="13.64" ry="7.32"/>
      <circle class="cls-10" cx="170.92" cy="678.47" r="3.22"/>
      <circle class="cls-10" cx="215.37" cy="678.47" r="3.22"/>
      <line class="cls-16" x1="157.38" y1="706.47" x2="244.51" y2="706.47"/>
      <line class="cls-16" x1="162.54" y1="720.86" x2="239.36" y2="720.86"/>
      <line class="cls-19" x1="167.7" y1="714.17" x2="237.78" y2="714.17"/>
      <polygon class="cls-22" points="194.01 643.78 192.08 662.92 190.08 662.92 188.15 643.78 194.01 643.78 194.01 643.78"/>
      <circle class="cls-10" cx="191.08" cy="670.41" r="2.44"/>
      <polygon class="cls-22" points="466.46 714.37 464.53 730.66 462.53 730.66 460.6 714.37 466.46 714.37 466.46 714.37"/>
      <circle class="cls-10" cx="463.53" cy="737.03" r="2.07"/>
      <circle class="cls-10" cx="195.7" cy="705.28" r="4.75"/>
      <circle class="cls-10" cx="195.7" cy="718.95" r="8.47"/>
      <rect class="cls-10" x="187.22" y="718.95" width="16.95" height="13.28"/>
      <circle class="cls-10" cx="190.49" cy="538.99" r="12.2"/>
      <circle class="cls-10" cx="190.49" cy="574.07" r="21.75"/>
      <rect class="cls-10" x="168.74" y="574.07" width="43.5" height="34.11"/>
      <rect class="cls-10" x="432.62" y="688.63" width="9.82" height="4.91"/>
      <circle class="cls-10" cx="218.59" cy="698.66" r="4.75"/>
      <circle class="cls-10" cx="218.59" cy="712.33" r="8.47"/>
      <rect class="cls-10" x="210.12" y="712.33" width="16.95" height="13.28"/>
      <rect class="cls-14" x="154.78" y="113.94" width="64.9" height="10.9"/>
      <rect class="cls-14" x="154.78" y="113.94" width="64.9" height="10.9" transform="translate(67.84 306.62) rotate(-90)"/>
      <polygon class="cls-15" points="237.6 149.05 207.88 174.87 168.51 175.55 137.91 150.76 130.41 112.1 149.51 77.67 186.28 63.57 223.51 76.4 243.78 110.16 237.6 149.05"/>
      <circle class="cls-4" cx="178.06" cy="119.39" r="3.54"/>
      <circle class="cls-4" cx="196.4" cy="119.39" r="3.54"/>
      <rect class="cls-4" x="178.79" y="115.85" width="16.61" height="7.08"/>
      <circle class="cls-14" cx="184.6" cy="117.03" r=".17"/>
      <circle class="cls-14" cx="189.53" cy="121.84" r=".17"/>
      <circle class="cls-14" cx="187.09" cy="119.39" r=".17"/>
      <circle class="cls-14" cx="184.6" cy="121.84" r=".17"/>
      <circle class="cls-14" cx="189.53" cy="117.03" r=".17"/>
      <rect class="cls-3" x="138.14" y="356.76" width="104.7" height="104.7"/>
      <g>
        <path class="cls-22" d="M200.13,402.5l.59-.87c3.73,2.54,7.08,5.4,10.03,8.48v-24.16c0-5.28-4.28-9.56-9.56-9.56h-21.43c-5.28,0-9.56,4.28-9.56,9.56v52.31c0,5.28,4.28,9.56,9.56,9.56h21.43c5.28,0,9.56-4.28,9.56-9.56v-26.62c-3.08-3.34-6.63-6.43-10.62-9.14Z"/>
        <path class="cls-22" d="M210.76,410.11v1.54c14.01,15.19,18.13,35.63,8.69,50.05l.88.58c9.89-15.08,5.38-36.54-9.57-52.16Z"/>
      </g>
      <rect class="cls-21" x="189.18" y="393.03" width="13.03" height="11.44" transform="translate(279.55 -37.45) rotate(37.02)"/>
      <rect class="cls-21" x="185.05" y="390.52" width="8.98" height="2.17" rx=".94" ry=".94" transform="translate(274.01 -35.17) rotate(37.02)"/>
      <rect class="cls-21" x="182.6" y="393.76" width="8.98" height="2.17" rx=".94" ry=".94" transform="translate(275.47 -33.05) rotate(37.02)"/>
      <rect class="cls-3" x="379.68" y="498.9" width="110.18" height="110.18" rx="12" ry="12"/>
      <circle class="cls-10" cx="416.63" cy="546.18" r="10.51"/>
      <line class="cls-16" x1="421.96" y1="555.58" x2="461.96" y2="609.42"/>
      <line class="cls-16" x1="465.09" y1="557.59" x2="458.63" y2="576.26"/>
      <line class="cls-16" x1="431.52" y1="569.53" x2="458.63" y2="576.26"/>
      <line class="cls-16" x1="406.12" y1="548.79" x2="392.58" y2="579.2"/>
      <line class="cls-16" x1="393.34" y1="578.69" x2="431.61" y2="569.5"/>
      <g>
        <rect class="cls-22" x="465.51" y="553.78" width="8.46" height="13.12"/>
        <path class="cls-22" d="M474.33,567.25c-3.05.09-6.18.16-9.27.15,0,0-.04-.5-.04-.5l-1.12-13.12-.13-1.53,1.75-.09c1.7-.09,9.23-.49,10.77-.57-.5,5.24-1.37,10.61-1.95,15.67h0ZM473.62,566.54c-.37-3.97-1.17-8.87-1.72-12.77,0,0,2.07,2.07,2.07,2.07l-8.46-.45,1.62-1.62-1.12,13.12-.5-.5c2.7,0,5.37.06,8.11.15h0Z"/>
      </g>
      <rect class="cls-4" x="467.28" y="560.66" width="2.23" height="2.23"/>
      <rect class="cls-4" x="471.18" y="557.53" width="2.23" height="2.23" transform="translate(-228.06 347.36) rotate(-33)"/>
      <circle class="cls-10" cx="451.13" cy="523.01" r="14.38"/>
      <line class="cls-9" x1="450.43" y1="512.77" x2="450.43" y2="524.09"/>
      <line class="cls-9" x1="461.46" y1="524.02" x2="450.13" y2="524.02"/>
      <polygon class="cls-3" points="497.38 748.69 370.09 748.13 434.22 638.18 497.38 748.69"/>
      <path class="cls-22" d="M426.03,704.82c-2.26,1.23-4.95,2.32-6.63,4.35s-2.23,4.77-.82,7.05c1.29,2.09,3.5,2.72,5.58,3.7.47.22,1.35.59,1.6,1.08.24.46-.24.68-.75,1-1.83,1.16-4.07,1.52-5.99,2.51-2.2,1.13-4.75,3.59-3.35,6.27,1.27,2.43,4.6,2.71,6.96,3.39,1.2.34,3.74,1.21,3.49,2.9s-2.97,2.6-4.3,3.15c-2.53,1.05-4.94,2.23-6.39,4.67-1.65,2.77,2.67,5.29,4.32,2.52,1.19-1.99,4.05-2.53,6-3.48,2.31-1.12,4.65-3.08,5.21-5.71.65-3.05-1-5.73-3.48-7.39-1.18-.78-2.58-1.25-3.93-1.61-.77-.21-1.55-.38-2.31-.6-.34-.1-.69-.24-1.04-.32-.73-.17-.16-.52-.02.22v1.33c.12-.64,1.94-1.32,2.75-1.61,1.45-.53,2.95-.99,4.29-1.75,3.13-1.76,4.92-5.42,2.46-8.54-1.01-1.28-2.4-2.11-3.88-2.72-.89-.37-2.38-.74-2.93-1.56-1.05-1.6,4.66-3.98,5.67-4.53,2.83-1.54.31-5.86-2.52-4.32h0Z"/>
      <path class="cls-22" d="M445.98,704.9c-2.26,1.23-4.95,2.32-6.63,4.35s-2.23,4.77-.82,7.05c1.29,2.09,3.5,2.72,5.58,3.7.47.22,1.35.59,1.6,1.08.24.46-.24.68-.75,1-1.83,1.16-4.07,1.52-5.99,2.51-2.2,1.13-4.75,3.59-3.35,6.27,1.27,2.43,4.6,2.71,6.96,3.39,1.2.34,3.74,1.21,3.49,2.9s-2.97,2.6-4.3,3.15c-2.53,1.05-4.94,2.23-6.39,4.67-1.65,2.77,2.67,5.29,4.32,2.52,1.19-1.99,4.05-2.53,6-3.48,2.31-1.12,4.65-3.08,5.21-5.71.65-3.05-1-5.73-3.48-7.39-1.18-.78-2.58-1.25-3.93-1.61-.77-.21-1.55-.38-2.31-.6-.34-.1-.69-.24-1.04-.32-.73-.17-.16-.52-.02.22v1.33c.12-.64,1.94-1.32,2.75-1.61,1.45-.53,2.95-.99,4.29-1.75,3.13-1.76,4.92-5.42,2.46-8.54-1.01-1.28-2.4-2.11-3.88-2.72-.89-.37-2.38-.74-2.93-1.56-1.05-1.6,4.66-3.98,5.67-4.53,2.83-1.54.31-5.86-2.52-4.32h0Z"/>
      <path class="cls-22" d="M428.18,364.5c-2.26,1.23-4.94,2.32-6.63,4.35s-2.23,4.77-.82,7.05c1.29,2.09,3.5,2.72,5.58,3.7.47.22,1.35.59,1.6,1.08.24.46-.24.68-.75,1-1.83,1.16-4.07,1.52-5.99,2.51-2.2,1.13-4.75,3.59-3.35,6.27,1.27,2.43,4.6,2.71,6.96,3.39,1.2.34,3.74,1.21,3.48,2.9s-2.97,2.6-4.3,3.15c-2.53,1.05-4.94,2.23-6.39,4.67-1.65,2.77,2.67,5.29,4.32,2.52,1.19-1.99,4.05-2.53,6-3.48,2.31-1.12,4.65-3.08,5.21-5.71.65-3.05-1-5.73-3.48-7.38-1.18-.78-2.58-1.25-3.93-1.61-.77-.21-1.55-.38-2.31-.6-.34-.1-.69-.24-1.04-.32-.73-.17-.16-.52-.01.22v1.33c.12-.64,1.94-1.32,2.75-1.61,1.45-.53,2.95-.99,4.29-1.75,3.13-1.76,4.92-5.42,2.46-8.54-1.01-1.28-2.4-2.11-3.88-2.72-.89-.37-2.38-.74-2.93-1.56-1.05-1.6,4.66-3.98,5.67-4.53,2.83-1.54.31-5.86-2.52-4.32h0Z"/>
      <path class="cls-22" d="M448.12,364.59c-2.26,1.23-4.94,2.32-6.63,4.35s-2.23,4.77-.82,7.05c1.29,2.09,3.5,2.72,5.58,3.7.47.22,1.35.59,1.6,1.08.24.46-.24.68-.75,1-1.83,1.16-4.07,1.52-5.99,2.51-2.2,1.13-4.75,3.59-3.35,6.27,1.27,2.43,4.6,2.71,6.96,3.39,1.2.34,3.74,1.21,3.48,2.9s-2.97,2.6-4.3,3.15c-2.53,1.05-4.94,2.23-6.39,4.67-1.65,2.77,2.67,5.29,4.32,2.52,1.19-1.99,4.05-2.53,6-3.48,2.31-1.12,4.65-3.08,5.21-5.71.65-3.05-1-5.73-3.48-7.38-1.18-.78-2.58-1.25-3.93-1.61-.77-.21-1.55-.38-2.31-.6-.34-.1-.69-.24-1.04-.32-.73-.17-.16-.52-.01.22v1.33c.12-.64,1.94-1.32,2.75-1.61,1.45-.53,2.95-.99,4.29-1.75,3.13-1.76,4.92-5.42,2.46-8.54-1.01-1.28-2.4-2.11-3.88-2.72-.89-.37-2.38-.74-2.93-1.56-1.05-1.6,4.66-3.98,5.67-4.53,2.83-1.54.31-5.86-2.52-4.32h0Z"/>
      <rect class="cls-6" x="417.64" y="685.74" width="35.89" height="12.23" rx="4.4" ry="4.4"/>
      <rect class="cls-10" x="414.84" y="695.05" width="41.47" height="11.93" rx="4.64" ry="4.64"/>
      <circle class="cls-6" cx="447.29" cy="706.97" r="4.23"/>
      <circle class="cls-6" cx="426.71" cy="707.06" r="4.23"/>
      <circle class="cls-10" cx="428.63" cy="691.04" r="2.15"/>
      <circle class="cls-10" cx="428.63" cy="697.22" r="3.83"/>
      <circle class="cls-10" cx="442.45" cy="690.78" r="2.15"/>
      <circle class="cls-10" cx="442.45" cy="696.96" r="3.83"/>
      <rect class="cls-3" x="379.28" y="354.3" width="110.98" height="110.98" rx="12" ry="12"/>
      <ellipse class="cls-1" cx="435.21" cy="420.05" rx="28.6" ry="5.71"/>
      <path class="cls-16" d="M452.3,442.65c6.98,1.04,11.5,2.7,11.5,4.58,0,3.15-12.8,5.71-28.6,5.71s-28.6-2.56-28.6-5.71c0-1.85,4.4-3.49,11.22-4.53"/>
      <ellipse class="cls-11" cx="435.59" cy="422" rx="23.47" ry="3.76"/>
      <path class="cls-16" d="M463.89,419.91c2.76,11.92-7.15,22.1-17.75,25.57-11.2,3.67-25.04,1.62-33.6-6.86-5.03-4.98-7.72-12.34-5.88-19.32"/>
      <polygon class="cls-18" points="453.76 173.61 406.82 173.44 373.75 140.12 373.92 93.18 407.24 60.11 454.18 60.29 487.25 93.6 487.08 140.55 453.76 173.61"/>
      <ellipse class="cls-13" cx="444.27" cy="92.75" rx="12.43" ry="20.93"/>
      <ellipse class="cls-20" cx="428.73" cy="118.86" rx="21.67" ry="9.39" transform="translate(-15.9 103.42) rotate(-13.51)"/>
      <ellipse class="cls-13" cx="435.27" cy="124.44" rx="5.35" ry="3.17" transform="translate(2.45 257.14) rotate(-33)"/>
      <line class="cls-17" x1="413.83" y1="128.56" x2="412.05" y2="152.99"/>
      <line class="cls-17" x1="445.2" y1="121.72" x2="445.42" y2="151.74"/>
      <path class="cls-17" d="M411.71,152.13c9.06,9.13,24.29,8.67,34.05-1.02"/>
      <path class="cls-3" d="M206.66,316.03l-35.46.03c-8.51,0-16.37-4.53-20.63-11.89l-17.75-30.7c-4.26-7.36-4.26-16.44-.02-23.81l17.71-30.72c4.25-7.37,12.1-11.91,20.61-11.92l35.46-.03c8.51,0,16.37,4.53,20.63,11.89l17.75,30.7c4.26,7.36,4.26,16.44.02,23.81l-17.71,30.72c-4.25,7.37-12.1,11.91-20.61,11.92Z"/>
      <line class="cls-1" x1="145.66" y1="295.67" x2="232.11" y2="295.71"/>
      <line class="cls-1" x1="134.06" y1="275.62" x2="243.55" y2="275.86"/>
      <rect class="cls-11" x="167.94" y="261.68" width="41.73" height="28.11" rx="12" ry="12"/>
      <rect class="cls-16" x="179.22" y="256.72" width="19.17" height="13.42" rx="5.8" ry="5.8"/>
      <line class="cls-8" x1="162.45" y1="235.26" x2="199.44" y2="235.55"/>
      <polygon class="cls-7" points="215.16 235.89 199.63 244.48 199.95 226.74 215.16 235.89"/>
      <line class="cls-12" x1="140.9" y1="280.72" x2="238.59" y2="280.97"/>
      <line class="cls-12" x1="142.19" y1="290.47" x2="235.45" y2="290.71"/>
      <rect class="cls-3" x="136.67" y="498.62" width="107.64" height="110.31" rx="12" ry="12"/>
      <rect class="cls-16" x="169.52" y="524.08" width="47.83" height="30.46" rx="3.01" ry="3.01" transform="translate(134.25 -30.57) rotate(13.8)"/>
      <rect class="cls-10" x="158.32" y="562.91" width="70.28" height="44.76" rx="3.01" ry="3.01"/>
    </g>
  </g>
</svg>